<svg width="403" height="84" viewBox="0 0 403 84" fill="none" xmlns="http://www.w3.org/2000/svg">
<path d="M104.38 51C102.86 51 101.44 50.64 100.12 49.92C98.84 49.16 97.76 48.16 96.88 46.92C96.04 45.64 95.48 44.2 95.2 42.6C95.12 42.12 95.32 41.88 95.8 41.88C96.16 41.88 96.38 42.06 96.46 42.42C96.78 44.5 97.68 46.24 99.16 47.64C100.68 49.04 102.42 49.74 104.38 49.74C105.58 49.74 106.78 49.48 107.98 48.96C109.22 48.44 110.24 47.6 111.04 46.44C111.84 45.28 112.24 43.72 112.24 41.76C112.24 40 111.92 38.52 111.28 37.32C110.64 36.08 109.76 34.96 108.64 33.96C107.56 32.92 106.32 31.86 104.92 30.78L103.78 29.88C102.46 28.84 101.26 27.8 100.18 26.76C99.1 25.68 98.22 24.44 97.54 23.04C96.9 21.64 96.58 19.96 96.58 18C96.58 15.92 97 14.26 97.84 13.02C98.68 11.74 99.74 10.8 101.02 10.2C102.3 9.6 103.58 9.3 104.86 9.3C106.74 9.3 108.3 9.78 109.54 10.74C110.78 11.7 111.7 13.06 112.3 14.82C112.38 15.1 112.36 15.34 112.24 15.54C112.16 15.7 112 15.78 111.76 15.78C111.48 15.78 111.28 15.62 111.16 15.3C110.64 13.78 109.88 12.62 108.88 11.82C107.88 10.98 106.56 10.56 104.92 10.56C103.04 10.56 101.4 11.2 100 12.48C98.6 13.72 97.9 15.56 97.9 18C97.9 19.76 98.18 21.28 98.74 22.56C99.34 23.8 100.16 24.92 101.2 25.92C102.24 26.92 103.4 27.94 104.68 28.98L105.52 29.64C107 30.8 108.34 31.94 109.54 33.06C110.78 34.18 111.76 35.42 112.48 36.78C113.2 38.14 113.56 39.8 113.56 41.76C113.56 44.56 112.7 46.8 110.98 48.48C109.3 50.16 107.1 51 104.38 51ZM139.387 51C138.987 51 138.787 50.8 138.787 50.4V10.2C138.787 9.8 138.987 9.6 139.387 9.6C139.827 9.6 140.047 9.8 140.047 10.2V50.4C140.047 50.8 139.827 51 139.387 51ZM166.724 51C166.324 51 166.124 50.8 166.124 50.4L168.884 10.2C168.884 9.8 169.084 9.6 169.484 9.6C169.684 9.6 169.864 9.68 170.024 9.84L177.524 16.56C178.244 17.2 178.884 17.82 179.444 18.42C180.004 17.82 180.644 17.2 181.364 16.56L188.864 9.84C189.024 9.68 189.204 9.6 189.404 9.6C189.804 9.6 190.004 9.8 190.004 10.2L192.764 50.4C192.764 50.8 192.564 51 192.164 51C191.724 51 191.504 50.8 191.504 50.4L188.864 11.58L182.144 17.52C181.424 18.16 180.804 18.78 180.284 19.38C181.084 20.38 181.644 21.34 181.964 22.26C182.324 23.18 182.504 24.12 182.504 25.08C182.504 26.16 182.304 27.14 181.904 28.02C181.544 28.9 181.124 29.76 180.644 30.6C180.444 30.96 180.284 31.26 180.164 31.5C180.564 32.3 180.904 33.2 181.184 34.2C181.504 35.2 181.664 36.34 181.664 37.62C181.664 38.7 181.464 39.72 181.064 40.68C180.664 41.6 180.124 42.06 179.444 42.06C178.764 42.06 178.224 41.6 177.824 40.68C177.424 39.72 177.224 38.7 177.224 37.62C177.224 36.34 177.364 35.2 177.644 34.2C177.964 33.2 178.324 32.3 178.724 31.5C178.604 31.26 178.444 30.96 178.244 30.6C177.764 29.76 177.324 28.9 176.924 28.02C176.564 27.14 176.384 26.16 176.384 25.08C176.384 23.16 177.124 21.26 178.604 19.38C178.084 18.78 177.464 18.16 176.744 17.52L170.024 11.58L167.384 50.4C167.384 50.8 167.164 51 166.724 51ZM179.324 29.94L179.444 30.18L179.564 29.94C180.004 29.14 180.384 28.36 180.704 27.6C181.064 26.8 181.244 25.96 181.244 25.08C181.244 23.52 180.644 21.94 179.444 20.34C178.244 21.94 177.644 23.52 177.644 25.08C177.644 25.96 177.804 26.8 178.124 27.6C178.484 28.36 178.884 29.14 179.324 29.94ZM178.484 37.62C178.484 38.3 178.584 38.96 178.784 39.6C178.984 40.24 179.204 40.62 179.444 40.74C179.644 40.62 179.844 40.24 180.044 39.6C180.284 38.96 180.404 38.3 180.404 37.62C180.404 36.7 180.304 35.86 180.104 35.1C179.944 34.34 179.724 33.62 179.444 32.94C179.164 33.62 178.924 34.34 178.724 35.1C178.564 35.86 178.484 36.7 178.484 37.62ZM219.475 51C219.075 51 218.875 50.8 218.875 50.4V10.2C218.875 9.8 219.075 9.6 219.475 9.6H225.895C228.495 9.6 230.475 10.58 231.835 12.54C233.235 14.5 233.935 17.02 233.935 20.1C233.935 23.42 233.095 26.14 231.415 28.26C229.775 30.38 227.375 31.44 224.215 31.44C223.575 31.44 222.895 31.4 222.175 31.32C221.495 31.2 220.815 31.04 220.135 30.84V50.4C220.135 50.8 219.915 51 219.475 51ZM225.895 10.86H220.135V29.58C221.655 29.98 223.015 30.18 224.215 30.18C226.815 30.18 228.855 29.3 230.335 27.54C231.855 25.78 232.615 23.3 232.615 20.1C232.615 17.5 232.075 15.32 230.995 13.56C229.915 11.76 228.215 10.86 225.895 10.86ZM259.724 51C259.324 51 259.124 50.8 259.124 50.4V10.2C259.124 9.8 259.324 9.6 259.724 9.6C260.164 9.6 260.384 9.8 260.384 10.2V49.74H273.944C274.344 49.74 274.544 49.94 274.544 50.34C274.544 50.78 274.344 51 273.944 51H259.724ZM297.685 51C297.445 51 297.265 50.92 297.145 50.76C297.065 50.56 297.045 50.38 297.085 50.22L307.885 10.08C307.965 9.76 308.165 9.6 308.485 9.6C308.845 9.6 309.065 9.76 309.145 10.08L320.005 50.22C320.085 50.38 320.065 50.56 319.945 50.76C319.825 50.92 319.645 51 319.405 51C319.085 51 318.885 50.84 318.805 50.52L314.545 34.86H302.485L298.285 50.52C298.205 50.84 298.005 51 297.685 51ZM302.845 33.6H314.245L308.545 12.48L302.845 33.6ZM347.83 51C347.43 51 347.23 50.8 347.23 50.4V10.86H337.75C337.35 10.86 337.15 10.64 337.15 10.2C337.15 9.8 337.35 9.6 337.75 9.6H357.97C358.37 9.6 358.57 9.8 358.57 10.2C358.57 10.64 358.37 10.86 357.97 10.86H348.49V50.4C348.49 50.8 348.27 51 347.83 51ZM383.167 51C382.767 51 382.567 50.8 382.567 50.4V10.2C382.567 9.8 382.767 9.6 383.167 9.6H394.507C394.907 9.6 395.107 9.8 395.107 10.2C395.107 10.64 394.907 10.86 394.507 10.86H383.827V28.08H393.907C394.307 28.08 394.507 28.28 394.507 28.68C394.507 29.12 394.307 29.34 393.907 29.34H383.827V49.74H394.507C394.907 49.74 395.107 49.94 395.107 50.34C395.107 50.78 394.907 51 394.507 51H383.167Z" fill="#232E3F"/>
<path d="M100.12 49.92L99.8647 50.3499L99.8726 50.3546L99.8806 50.3589L100.12 49.92ZM96.88 46.92L96.462 47.1943L96.467 47.2019L96.4722 47.2094L96.88 46.92ZM95.2 42.6L94.7068 42.6822L94.7075 42.6862L95.2 42.6ZM96.46 42.42L96.9542 42.344L96.9517 42.3277L96.9481 42.3115L96.46 42.42ZM99.16 47.64L98.8164 48.0033L98.8213 48.0078L99.16 47.64ZM107.98 48.96L107.787 48.4989L107.781 48.5012L107.98 48.96ZM111.04 46.44L110.628 46.1561L110.628 46.1561L111.04 46.44ZM111.28 37.32L110.836 37.5493L110.839 37.5553L111.28 37.32ZM108.64 33.96L108.293 34.3202L108.3 34.3267L108.307 34.333L108.64 33.96ZM104.92 30.78L104.61 31.1725L104.615 31.1759L104.92 30.78ZM103.78 29.88L104.09 29.4876L104.089 29.4873L103.78 29.88ZM100.18 26.76L99.8264 27.1136L99.8332 27.1202L100.18 26.76ZM97.54 23.04L97.0851 23.2479L97.0902 23.2585L97.54 23.04ZM97.84 13.02L98.254 13.3005L98.258 13.2943L97.84 13.02ZM101.02 10.2L101.232 10.6527L101.232 10.6527L101.02 10.2ZM109.54 10.74L109.234 11.1354L109.234 11.1354L109.54 10.74ZM112.3 14.82L112.781 14.6826L112.777 14.6706L112.773 14.6587L112.3 14.82ZM112.24 15.54L111.811 15.2828L111.801 15.2992L111.793 15.3164L112.24 15.54ZM111.16 15.3L110.687 15.4618L110.689 15.4687L110.692 15.4756L111.16 15.3ZM108.88 11.82L108.558 12.203L108.568 12.2104L108.88 11.82ZM100 12.48L100.332 12.8543L100.337 12.849L100 12.48ZM98.74 22.56L98.2819 22.7604L98.2858 22.7692L98.2899 22.7778L98.74 22.56ZM101.2 25.92L100.853 26.2804L100.853 26.2804L101.2 25.92ZM104.68 28.98L104.365 29.3681L104.371 29.3732L104.68 28.98ZM105.52 29.64L105.211 30.0332L105.212 30.0335L105.52 29.64ZM109.54 33.06L109.199 33.4256L109.205 33.431L109.54 33.06ZM112.48 36.78L112.922 36.5461L112.922 36.5461L112.48 36.78ZM110.98 48.48L110.631 48.1223L110.626 48.1264L110.98 48.48ZM104.38 50.5C102.943 50.5 101.605 50.1605 100.359 49.4811L99.8806 50.3589C101.275 51.1195 102.777 51.5 104.38 51.5V50.5ZM100.375 49.4901C99.1567 48.7665 98.1282 47.8149 97.2878 46.6306L96.4722 47.2094C97.3918 48.5051 98.5233 49.5535 99.8647 50.3499L100.375 49.4901ZM97.298 46.6457C96.4977 45.4261 95.9615 44.0508 95.6925 42.5138L94.7075 42.6862C94.9985 44.3492 95.5823 45.8539 96.462 47.1943L97.298 46.6457ZM95.6932 42.5178C95.6794 42.4352 95.6822 42.388 95.6857 42.3672C95.6886 42.3499 95.6899 42.3612 95.6741 42.3801C95.6581 42.3993 95.6455 42.4012 95.6589 42.3965C95.676 42.3904 95.7191 42.38 95.8 42.38V41.38C95.4918 41.38 95.1424 41.456 94.9059 41.7399C94.6711 42.0217 94.6562 42.3784 94.7068 42.6822L95.6932 42.5178ZM95.8 42.38C95.8488 42.38 95.879 42.3861 95.8956 42.3913C95.9108 42.396 95.9165 42.4004 95.9184 42.402C95.9188 42.4023 95.9489 42.4251 95.9719 42.5285L96.9481 42.3115C96.8911 42.0549 96.7712 41.8077 96.5516 41.628C96.3307 41.4472 96.064 41.38 95.8 41.38V42.38ZM95.9658 42.496C96.3021 44.6819 97.2529 46.5242 98.8164 48.0032L99.5036 47.2768C98.1071 45.9558 97.2579 44.3181 96.9542 42.344L95.9658 42.496ZM98.8213 48.0078C100.428 49.4877 102.287 50.24 104.38 50.24V49.24C102.553 49.24 100.932 48.5923 99.4987 47.2722L98.8213 48.0078ZM104.38 50.24C105.654 50.24 106.922 49.9635 108.179 49.4188L107.781 48.5012C106.638 48.9965 105.506 49.24 104.38 49.24V50.24ZM108.173 49.4211C109.506 48.8623 110.6 47.9586 111.452 46.7239L110.628 46.1561C109.88 47.2414 108.934 48.0177 107.787 48.4989L108.173 49.4211ZM111.452 46.7239C112.328 45.4536 112.74 43.783 112.74 41.76H111.74C111.74 43.657 111.352 45.1064 110.628 46.1561L111.452 46.7239ZM112.74 41.76C112.74 39.9414 112.409 38.3753 111.721 37.0847L110.839 37.5553C111.431 38.6647 111.74 40.0586 111.74 41.76H112.74ZM111.724 37.0907C111.054 35.7924 110.135 34.6246 108.973 33.587L108.307 34.333C109.385 35.2954 110.226 36.3676 110.836 37.5493L111.724 37.0907ZM108.987 33.5998C107.892 32.5452 106.637 31.4733 105.225 30.3841L104.615 31.1759C106.003 32.2467 107.228 33.2948 108.293 34.3202L108.987 33.5998ZM105.23 30.3876L104.09 29.4876L103.47 30.2724L104.61 31.1724L105.23 30.3876ZM104.089 29.4873C102.781 28.4563 101.594 27.4271 100.527 26.3998L99.8332 27.1202C100.926 28.1729 102.139 29.2237 103.471 30.2727L104.089 29.4873ZM100.534 26.4064C99.4937 25.3666 98.6459 24.1724 97.9898 22.8215L97.0902 23.2585C97.7941 24.7076 98.7063 25.9934 99.8264 27.1136L100.534 26.4064ZM97.9947 22.8321C97.3915 21.5126 97.08 19.9072 97.08 18H96.08C96.08 20.0128 96.4085 21.7674 97.0853 23.2479L97.9947 22.8321ZM97.08 18C97.08 15.9824 97.4879 14.4312 98.254 13.3004L97.426 12.7396C96.5121 14.0888 96.08 15.8576 96.08 18H97.08ZM98.258 13.2943C99.0516 12.085 100.043 11.2102 101.232 10.6527L100.808 9.74727C99.4371 10.3898 98.3084 11.395 97.422 12.7457L98.258 13.2943ZM101.232 10.6527C102.453 10.0806 103.661 9.8 104.86 9.8V8.8C103.499 8.8 102.147 9.11942 100.808 9.74727L101.232 10.6527ZM104.86 9.8C106.652 9.8 108.098 10.2559 109.234 11.1354L109.846 10.3446C108.502 9.30408 106.828 8.8 104.86 8.8V9.8ZM109.234 11.1354C110.383 12.025 111.252 13.2965 111.827 14.9813L112.773 14.6587C112.148 12.8235 111.177 11.375 109.846 10.3446L109.234 11.1354ZM111.819 14.9574C111.871 15.1396 111.843 15.2296 111.811 15.2828L112.669 15.7972C112.877 15.4504 112.889 15.0604 112.781 14.6826L111.819 14.9574ZM111.793 15.3164C111.796 15.3109 111.801 15.3015 111.811 15.2914C111.821 15.2814 111.831 15.2755 111.836 15.2728C111.841 15.2704 111.839 15.2722 111.827 15.2747C111.814 15.2772 111.793 15.28 111.76 15.28V16.28C112.114 16.28 112.493 16.1514 112.687 15.7636L111.793 15.3164ZM111.76 15.28C111.738 15.28 111.727 15.277 111.723 15.2757C111.72 15.2745 111.717 15.2732 111.712 15.2696C111.702 15.2616 111.667 15.2274 111.628 15.1244L110.692 15.4756C110.773 15.6926 110.898 15.8984 111.088 16.0504C111.285 16.2081 111.518 16.28 111.76 16.28V15.28ZM111.633 15.1382C111.09 13.551 110.283 12.3024 109.192 11.4296L108.568 12.2104C109.477 12.9376 110.19 14.009 110.687 15.4618L111.633 15.1382ZM109.202 11.4371C108.09 10.5037 106.647 10.06 104.92 10.06V11.06C106.473 11.06 107.67 11.4563 108.558 12.2028L109.202 11.4371ZM104.92 10.06C102.914 10.06 101.154 10.7476 99.6626 12.111L100.337 12.849C101.646 11.6524 103.166 11.06 104.92 11.06V10.06ZM99.6685 12.1057C98.131 13.4675 97.4 15.4632 97.4 18H98.4C98.4 15.6568 99.069 13.9725 100.332 12.8543L99.6685 12.1057ZM97.4 18C97.4 19.8117 97.6881 21.4031 98.2819 22.7604L99.1981 22.3596C98.6719 21.1569 98.4 19.7083 98.4 18H97.4ZM98.2899 22.7778C98.9169 24.0736 99.7728 25.2413 100.853 26.2804L101.547 25.5596C100.547 24.5987 99.7631 23.5264 99.1901 22.3422L98.2899 22.7778ZM100.853 26.2804C101.905 27.2913 103.075 28.3205 104.365 29.3681L104.995 28.5919C103.725 27.5595 102.575 26.5487 101.547 25.5596L100.853 26.2804ZM104.371 29.3732L105.211 30.0332L105.829 29.2468L104.989 28.5868L104.371 29.3732ZM105.212 30.0335C106.682 31.1859 108.011 32.3166 109.199 33.4255L109.881 32.6945C108.669 31.5634 107.318 30.4141 105.828 29.2465L105.212 30.0335ZM109.205 33.431C110.405 34.5153 111.348 35.7098 112.038 37.0139L112.922 36.5461C112.172 35.1302 111.155 33.8447 109.875 32.6889L109.205 33.431ZM112.038 37.0139C112.711 38.2848 113.06 39.8598 113.06 41.76H114.06C114.06 39.7402 113.689 37.9952 112.922 36.5461L112.038 37.0139ZM113.06 41.76C113.06 44.4494 112.238 46.552 110.631 48.1223L111.329 48.8377C113.162 47.048 114.06 44.6706 114.06 41.76H113.06ZM110.626 48.1264C109.054 49.6989 106.988 50.5 104.38 50.5V51.5C107.212 51.5 109.546 50.6211 111.334 48.8336L110.626 48.1264ZM139.387 50.5C139.264 50.5 139.263 50.4696 139.29 50.4964C139.317 50.5233 139.287 50.5229 139.287 50.4H138.287C138.287 50.6771 138.356 50.9767 138.583 51.2036C138.81 51.4304 139.11 51.5 139.387 51.5V50.5ZM139.287 50.4V10.2H138.287V50.4H139.287ZM139.287 10.2C139.287 10.0771 139.317 10.0767 139.29 10.1035C139.263 10.1304 139.264 10.1 139.387 10.1V9.1C139.11 9.1 138.81 9.1696 138.583 9.39644C138.356 9.62329 138.287 9.92293 138.287 10.2H139.287ZM139.387 10.1C139.541 10.1 139.563 10.136 139.545 10.12C139.536 10.1117 139.534 10.1045 139.536 10.1096C139.539 10.1176 139.547 10.1445 139.547 10.2H140.547C140.547 9.91 140.465 9.60432 140.218 9.38003C139.98 9.16395 139.673 9.1 139.387 9.1V10.1ZM139.547 10.2V50.4H140.547V10.2H139.547ZM139.547 50.4C139.547 50.4555 139.539 50.4824 139.536 50.4904C139.534 50.4955 139.536 50.4883 139.545 50.48C139.563 50.464 139.541 50.5 139.387 50.5V51.5C139.673 51.5 139.98 51.436 140.218 51.22C140.465 50.9957 140.547 50.69 140.547 50.4H139.547ZM166.124 50.4L165.625 50.3658L165.624 50.3829V50.4H166.124ZM168.884 10.2L169.383 10.2342L169.384 10.2171V10.2H168.884ZM170.024 9.84L169.671 10.1936L169.68 10.2032L169.691 10.2124L170.024 9.84ZM177.524 16.56L177.191 16.9324L177.192 16.9337L177.524 16.56ZM179.444 18.42L179.079 18.7612L179.444 19.1528L179.81 18.7612L179.444 18.42ZM181.364 16.56L181.696 16.9337L181.698 16.9324L181.364 16.56ZM188.864 9.84L189.198 10.2124L189.208 10.2032L189.218 10.1936L188.864 9.84ZM190.004 10.2H189.504V10.2171L189.505 10.2342L190.004 10.2ZM192.764 50.4H193.264V50.3829L193.263 50.3658L192.764 50.4ZM191.504 50.4H192.004V50.383L192.003 50.3661L191.504 50.4ZM188.864 11.58L189.363 11.5461L189.294 10.5326L188.533 11.2054L188.864 11.58ZM182.144 17.52L181.813 17.1454L181.812 17.1463L182.144 17.52ZM180.284 19.38L179.906 19.0525L179.634 19.3672L179.894 19.6923L180.284 19.38ZM181.964 22.26L181.492 22.4243L181.495 22.4333L181.499 22.4422L181.964 22.26ZM181.904 28.02L181.449 27.8131L181.445 27.8218L181.441 27.8307L181.904 28.02ZM180.644 30.6L180.21 30.3519L180.207 30.3572L180.644 30.6ZM180.164 31.5L179.717 31.2764L179.605 31.5L179.717 31.7236L180.164 31.5ZM181.184 34.2L180.703 34.3348L180.705 34.3436L180.708 34.3524L181.184 34.2ZM181.064 40.68L181.523 40.8794L181.526 40.8723L181.064 40.68ZM177.824 40.68L177.363 40.8723L177.366 40.8794L177.824 40.68ZM177.644 34.2L177.168 34.0476L177.165 34.0564L177.163 34.0652L177.644 34.2ZM178.724 31.5L179.171 31.7236L179.283 31.5L179.171 31.2764L178.724 31.5ZM178.244 30.6L178.681 30.3572L178.678 30.3519L178.244 30.6ZM176.924 28.02L176.461 28.2093L176.465 28.2182L176.469 28.2269L176.924 28.02ZM178.604 19.38L178.997 19.6893L179.253 19.3647L178.982 19.0525L178.604 19.38ZM176.744 17.52L177.076 17.1463L177.075 17.1454L176.744 17.52ZM170.024 11.58L170.355 11.2054L169.594 10.5326L169.525 11.5461L170.024 11.58ZM167.384 50.4L166.885 50.3661L166.884 50.383V50.4H167.384ZM179.324 29.94L179.771 29.7164L179.767 29.7076L179.762 29.699L179.324 29.94ZM179.444 30.18L178.997 30.4036L179.444 31.298L179.891 30.4036L179.444 30.18ZM179.564 29.94L179.126 29.699L179.121 29.7076L179.117 29.7164L179.564 29.94ZM180.704 27.6L180.248 27.3948L180.243 27.406L180.704 27.6ZM179.444 20.34L179.844 20.04L179.444 19.5067L179.044 20.04L179.444 20.34ZM178.124 27.6L177.66 27.7857L177.666 27.8001L177.672 27.814L178.124 27.6ZM179.444 40.74L179.221 41.1872L179.466 41.31L179.701 41.1687L179.444 40.74ZM180.044 39.6L179.576 39.4244L179.571 39.4375L179.567 39.4509L180.044 39.6ZM180.104 35.1L179.615 35.203L179.618 35.2152L179.621 35.2272L180.104 35.1ZM179.444 32.94L179.907 32.7496L179.444 31.6268L178.982 32.7496L179.444 32.94ZM178.724 35.1L178.241 34.9728L178.238 34.9848L178.235 34.997L178.724 35.1ZM166.724 50.5C166.601 50.5 166.601 50.4696 166.628 50.4964C166.655 50.5233 166.624 50.5229 166.624 50.4H165.624C165.624 50.6771 165.694 50.9767 165.921 51.2036C166.148 51.4304 166.447 51.5 166.724 51.5V50.5ZM166.623 50.4342L169.383 10.2342L168.385 10.1658L165.625 50.3658L166.623 50.4342ZM169.384 10.2C169.384 10.0771 169.415 10.0767 169.388 10.1035C169.361 10.1304 169.361 10.1 169.484 10.1V9.1C169.207 9.1 168.908 9.1696 168.681 9.39644C168.454 9.62329 168.384 9.92293 168.384 10.2H169.384ZM169.484 10.1C169.534 10.1 169.591 10.1139 169.671 10.1936L170.378 9.48644C170.137 9.2461 169.835 9.1 169.484 9.1V10.1ZM169.691 10.2124L177.191 16.9324L177.858 16.1876L170.358 9.46761L169.691 10.2124ZM177.192 16.9337C177.902 17.5651 178.531 18.1743 179.079 18.7612L179.81 18.0788C179.238 17.4657 178.586 16.8349 177.856 16.1863L177.192 16.9337ZM179.81 18.7612C180.358 18.1743 180.986 17.5651 181.696 16.9337L181.032 16.1863C180.302 16.8349 179.651 17.4657 179.079 18.0788L179.81 18.7612ZM181.698 16.9324L189.198 10.2124L188.531 9.46761L181.031 16.1876L181.698 16.9324ZM189.218 10.1936C189.297 10.1139 189.355 10.1 189.404 10.1V9.1C189.054 9.1 188.751 9.2461 188.511 9.48644L189.218 10.1936ZM189.404 10.1C189.527 10.1 189.528 10.1304 189.501 10.1035C189.474 10.0767 189.504 10.0771 189.504 10.2H190.504C190.504 9.92293 190.435 9.62329 190.208 9.39644C189.981 9.1696 189.681 9.1 189.404 9.1V10.1ZM189.505 10.2342L192.265 50.4342L193.263 50.3658L190.503 10.1658L189.505 10.2342ZM192.264 50.4C192.264 50.5229 192.234 50.5233 192.261 50.4964C192.288 50.4696 192.287 50.5 192.164 50.5V51.5C192.441 51.5 192.741 51.4304 192.968 51.2036C193.195 50.9767 193.264 50.6771 193.264 50.4H192.264ZM192.164 50.5C192.01 50.5 191.988 50.464 192.006 50.48C192.015 50.4883 192.017 50.4955 192.015 50.4904C192.012 50.4824 192.004 50.4555 192.004 50.4H191.004C191.004 50.69 191.086 50.9957 191.333 51.22C191.571 51.436 191.878 51.5 192.164 51.5V50.5ZM192.003 50.3661L189.363 11.5461L188.365 11.6139L191.005 50.4339L192.003 50.3661ZM188.533 11.2054L181.813 17.1454L182.475 17.8946L189.195 11.9546L188.533 11.2054ZM181.812 17.1463C181.079 17.7978 180.443 18.4331 179.906 19.0525L180.662 19.7075C181.165 19.1269 181.769 18.5222 182.476 17.8937L181.812 17.1463ZM179.894 19.6923C180.669 20.6612 181.195 21.5718 181.492 22.4243L182.436 22.0957C182.093 21.1082 181.5 20.0988 180.675 19.0677L179.894 19.6923ZM181.499 22.4422C181.837 23.3059 182.004 24.1842 182.004 25.08H183.004C183.004 24.0558 182.812 23.0541 182.43 22.0778L181.499 22.4422ZM182.004 25.08C182.004 26.097 181.816 27.0053 181.449 27.8131L182.359 28.2269C182.792 27.2747 183.004 26.223 183.004 25.08H182.004ZM181.441 27.8307C181.09 28.6901 180.679 29.5305 180.21 30.3519L181.078 30.8481C181.569 29.9895 181.999 29.1099 182.367 28.2093L181.441 27.8307ZM180.207 30.3572C180.005 30.7206 179.841 31.0275 179.717 31.2764L180.611 31.7236C180.727 31.4925 180.883 31.1994 181.081 30.8428L180.207 30.3572ZM179.717 31.7236C180.101 32.4911 180.43 33.3607 180.703 34.3348L181.666 34.0652C181.378 33.0393 181.028 32.1089 180.611 31.2764L179.717 31.7236ZM180.708 34.3524C181.009 35.2937 181.164 36.3808 181.164 37.62H182.164C182.164 36.2992 181.999 35.1063 181.66 34.0476L180.708 34.3524ZM181.164 37.62C181.164 38.6366 180.976 39.591 180.603 40.4877L181.526 40.8723C181.952 39.849 182.164 38.7634 182.164 37.62H181.164ZM180.606 40.4806C180.242 41.3181 179.835 41.56 179.444 41.56V42.56C180.413 42.56 181.087 41.8819 181.523 40.8794L180.606 40.4806ZM179.444 41.56C179.053 41.56 178.647 41.3181 178.283 40.4806L177.366 40.8794C177.802 41.8819 178.475 42.56 179.444 42.56V41.56ZM178.286 40.4877C177.912 39.591 177.724 38.6366 177.724 37.62H176.724C176.724 38.7634 176.936 39.849 177.363 40.8723L178.286 40.4877ZM177.724 37.62C177.724 36.3754 177.86 35.2821 178.126 34.3348L177.163 34.0652C176.868 35.1179 176.724 36.3046 176.724 37.62H177.724ZM178.12 34.3524C178.434 33.3728 178.785 32.4971 179.171 31.7236L178.277 31.2764C177.864 32.1029 177.495 33.0272 177.168 34.0476L178.12 34.3524ZM179.171 31.2764C179.047 31.0275 178.883 30.7206 178.681 30.3572L177.807 30.8428C178.005 31.1994 178.161 31.4925 178.277 31.7236L179.171 31.2764ZM178.678 30.3519C178.206 29.5253 177.773 28.679 177.379 27.8131L176.469 28.2269C176.875 29.121 177.322 29.9947 177.81 30.8481L178.678 30.3519ZM177.387 27.8307C177.055 27.0184 176.884 26.1038 176.884 25.08H175.884C175.884 26.2162 176.074 27.2616 176.461 28.2093L177.387 27.8307ZM176.884 25.08C176.884 23.2975 177.569 21.5033 178.997 19.6893L178.211 19.0707C176.679 21.0167 175.884 23.0225 175.884 25.08H176.884ZM178.982 19.0525C178.445 18.4331 177.809 17.7978 177.076 17.1463L176.412 17.8937C177.119 18.5222 177.723 19.1269 178.226 19.7075L178.982 19.0525ZM177.075 17.1454L170.355 11.2054L169.693 11.9546L176.413 17.8946L177.075 17.1454ZM169.525 11.5461L166.885 50.3661L167.883 50.4339L170.523 11.6139L169.525 11.5461ZM166.884 50.4C166.884 50.4555 166.876 50.4824 166.874 50.4904C166.872 50.4955 166.874 50.4883 166.883 50.48C166.901 50.464 166.878 50.5 166.724 50.5V51.5C167.01 51.5 167.318 51.436 167.556 51.22C167.802 50.9957 167.884 50.69 167.884 50.4H166.884ZM178.877 30.1636L178.997 30.4036L179.891 29.9564L179.771 29.7164L178.877 30.1636ZM179.891 30.4036L180.011 30.1636L179.117 29.7164L178.997 29.9564L179.891 30.4036ZM180.002 30.181C180.45 29.3673 180.838 28.5716 181.165 27.794L180.243 27.406C179.931 28.1483 179.559 28.9127 179.126 29.699L180.002 30.181ZM181.16 27.8052C181.549 26.9405 181.744 26.0305 181.744 25.08H180.744C180.744 25.8895 180.579 26.6595 180.248 27.3948L181.16 27.8052ZM181.744 25.08C181.744 23.3847 181.091 21.702 179.844 20.04L179.044 20.64C180.198 22.178 180.744 23.6553 180.744 25.08H181.744ZM179.044 20.04C177.798 21.702 177.144 23.3847 177.144 25.08H178.144C178.144 23.6553 178.691 22.178 179.844 20.64L179.044 20.04ZM177.144 25.08C177.144 26.0222 177.316 26.9254 177.66 27.7857L178.588 27.4143C178.293 26.6746 178.144 25.8978 178.144 25.08H177.144ZM177.672 27.814C178.037 28.5839 178.442 29.3729 178.886 30.181L179.762 29.699C179.327 28.9071 178.931 28.1361 178.576 27.386L177.672 27.814ZM177.984 37.62C177.984 38.3499 178.092 39.0602 178.307 39.7491L179.261 39.4509C179.077 38.8598 178.984 38.2501 178.984 37.62H177.984ZM178.307 39.7491C178.413 40.088 178.531 40.3814 178.667 40.6155C178.797 40.8414 178.974 41.0637 179.221 41.1872L179.668 40.2928C179.675 40.2963 179.621 40.2686 179.532 40.1145C179.447 39.9686 179.356 39.7519 179.261 39.4509L178.307 39.7491ZM179.701 41.1687C179.922 41.0366 180.075 40.8108 180.187 40.5979C180.306 40.3705 180.417 40.0839 180.521 39.7491L179.567 39.4509C179.472 39.7561 179.382 39.9795 179.302 40.1321C179.214 40.2992 179.167 40.3234 179.187 40.3113L179.701 41.1687ZM180.512 39.7756C180.773 39.0797 180.904 38.3603 180.904 37.62H179.904C179.904 38.2397 179.795 38.8403 179.576 39.4244L180.512 39.7756ZM180.904 37.62C180.904 36.6642 180.8 35.7806 180.588 34.9728L179.621 35.2272C179.808 35.9394 179.904 36.7358 179.904 37.62H180.904ZM180.593 34.997C180.428 34.2088 180.199 33.4594 179.907 32.7496L178.982 33.1304C179.25 33.7806 179.461 34.4712 179.615 35.203L180.593 34.997ZM178.982 32.7496C178.693 33.4515 178.446 34.1927 178.241 34.9728L179.208 35.2272C179.402 34.4873 179.636 33.7885 179.907 33.1304L178.982 32.7496ZM178.235 34.997C178.067 35.7964 177.984 36.6715 177.984 37.62H178.984C178.984 36.7285 179.062 35.9236 179.213 35.203L178.235 34.997ZM231.835 12.54L231.424 12.8251L231.428 12.8306L231.835 12.54ZM231.415 28.26L231.023 27.9494L231.02 27.9541L231.415 28.26ZM222.175 31.32L222.088 31.8124L222.104 31.8152L222.12 31.8169L222.175 31.32ZM220.135 30.84L220.276 30.3603L219.635 30.1718V30.84H220.135ZM220.135 10.86V10.36H219.635V10.86H220.135ZM220.135 29.58H219.635V29.9654L220.008 30.0635L220.135 29.58ZM230.335 27.54L229.957 27.2132L229.952 27.2182L230.335 27.54ZM230.995 13.56L230.566 13.8173L230.569 13.8215L230.995 13.56ZM219.475 50.5C219.352 50.5 219.352 50.4696 219.379 50.4964C219.405 50.5233 219.375 50.5229 219.375 50.4H218.375C218.375 50.6771 218.445 50.9767 218.671 51.2036C218.898 51.4304 219.198 51.5 219.475 51.5V50.5ZM219.375 50.4V10.2H218.375V50.4H219.375ZM219.375 10.2C219.375 10.0771 219.405 10.0767 219.379 10.1035C219.352 10.1304 219.352 10.1 219.475 10.1V9.1C219.198 9.1 218.898 9.1696 218.671 9.39644C218.445 9.62329 218.375 9.92293 218.375 10.2H219.375ZM219.475 10.1H225.895V9.1H219.475V10.1ZM225.895 10.1C228.348 10.1 230.167 11.0133 231.424 12.825L232.246 12.255C230.783 10.1467 228.642 9.1 225.895 9.1V10.1ZM231.428 12.8306C232.753 14.6849 233.435 17.0951 233.435 20.1H234.435C234.435 16.9449 233.717 14.3151 232.242 12.2494L231.428 12.8306ZM233.435 20.1C233.435 23.3336 232.618 25.9365 231.023 27.9495L231.807 28.5705C233.572 26.3435 234.435 23.5064 234.435 20.1H233.435ZM231.02 27.9541C229.492 29.929 227.251 30.94 224.215 30.94V31.94C227.499 31.94 230.058 30.831 231.81 28.5659L231.02 27.9541ZM224.215 30.94C223.596 30.94 222.934 30.9013 222.23 30.8231L222.12 31.8169C222.856 31.8987 223.554 31.94 224.215 31.94V30.94ZM222.262 30.8276C221.601 30.7109 220.939 30.5552 220.276 30.3603L219.994 31.3197C220.691 31.5248 221.389 31.6891 222.088 31.8124L222.262 30.8276ZM219.635 30.84V50.4H220.635V30.84H219.635ZM219.635 50.4C219.635 50.4555 219.627 50.4824 219.624 50.4904C219.622 50.4955 219.625 50.4883 219.634 50.48C219.651 50.464 219.629 50.5 219.475 50.5V51.5C219.761 51.5 220.069 51.436 220.306 51.22C220.553 50.9957 220.635 50.69 220.635 50.4H219.635ZM225.895 10.36H220.135V11.36H225.895V10.36ZM219.635 10.86V29.58H220.635V10.86H219.635ZM220.008 30.0635C221.557 30.4713 222.961 30.68 224.215 30.68V29.68C223.069 29.68 221.753 29.4887 220.262 29.0965L220.008 30.0635ZM224.215 30.68C226.941 30.68 229.13 29.7503 230.718 27.8618L229.952 27.2182C228.58 28.8497 226.689 29.68 224.215 29.68V30.68ZM230.713 27.8668C232.337 25.9868 233.115 23.3749 233.115 20.1H232.115C232.115 23.2251 231.373 25.5731 229.957 27.2132L230.713 27.8668ZM233.115 20.1C233.115 17.4314 232.56 15.1552 231.421 13.2985L230.569 13.8215C231.589 15.4848 232.115 17.5686 232.115 20.1H233.115ZM231.424 13.3028C230.243 11.334 228.368 10.36 225.895 10.36V11.36C228.062 11.36 229.587 12.186 230.566 13.8172L231.424 13.3028ZM260.384 49.74H259.884V50.24H260.384V49.74ZM259.724 50.5C259.601 50.5 259.601 50.4696 259.628 50.4964C259.655 50.5233 259.624 50.5229 259.624 50.4H258.624C258.624 50.6771 258.694 50.9767 258.921 51.2036C259.148 51.4304 259.447 51.5 259.724 51.5V50.5ZM259.624 50.4V10.2H258.624V50.4H259.624ZM259.624 10.2C259.624 10.0771 259.655 10.0767 259.628 10.1035C259.601 10.1304 259.601 10.1 259.724 10.1V9.1C259.447 9.1 259.148 9.1696 258.921 9.39644C258.694 9.62329 258.624 9.92293 258.624 10.2H259.624ZM259.724 10.1C259.878 10.1 259.901 10.136 259.883 10.12C259.874 10.1117 259.872 10.1045 259.874 10.1096C259.876 10.1176 259.884 10.1445 259.884 10.2H260.884C260.884 9.91 260.802 9.60432 260.556 9.38003C260.318 9.16395 260.01 9.1 259.724 9.1V10.1ZM259.884 10.2V49.74H260.884V10.2H259.884ZM260.384 50.24H273.944V49.24H260.384V50.24ZM273.944 50.24C274.067 50.24 274.068 50.2704 274.041 50.2436C274.014 50.2167 274.044 50.2171 274.044 50.34H275.044C275.044 50.0629 274.975 49.7633 274.748 49.5364C274.521 49.3096 274.221 49.24 273.944 49.24V50.24ZM274.044 50.34C274.044 50.4941 274.008 50.5163 274.024 50.4987C274.033 50.4896 274.04 50.4874 274.035 50.4893C274.027 50.4922 274 50.5 273.944 50.5V51.5C274.234 51.5 274.54 51.4181 274.764 51.1713C274.98 50.9337 275.044 50.6259 275.044 50.34H274.044ZM273.944 50.5H259.724V51.5H273.944V50.5ZM297.145 50.76L296.681 50.9457L296.705 51.0071L296.745 51.06L297.145 50.76ZM297.085 50.22L296.602 50.0901L296.6 50.0987L297.085 50.22ZM307.885 10.08L308.368 10.2099L308.37 10.2013L307.885 10.08ZM309.145 10.08L308.66 10.2013L308.662 10.2106L309.145 10.08ZM320.005 50.22L319.522 50.3506L319.535 50.3989L319.558 50.4436L320.005 50.22ZM319.945 50.76L320.345 51.06L320.36 51.0394L320.374 51.0172L319.945 50.76ZM318.805 50.52L319.29 50.3987L319.287 50.3888L318.805 50.52ZM314.545 34.86L315.027 34.7288L314.927 34.36H314.545V34.86ZM302.485 34.86V34.36H302.101L302.002 34.7305L302.485 34.86ZM298.285 50.52L297.802 50.3905L297.8 50.3987L298.285 50.52ZM302.845 33.6L302.362 33.4697L302.192 34.1H302.845V33.6ZM314.245 33.6V34.1H314.898L314.728 33.4697L314.245 33.6ZM308.545 12.48L309.028 12.3497L308.545 10.5611L308.062 12.3497L308.545 12.48ZM297.685 50.5C297.62 50.5 297.587 50.4892 297.573 50.4831C297.562 50.4783 297.555 50.4729 297.545 50.46L296.745 51.06C296.979 51.3717 297.323 51.5 297.685 51.5V50.5ZM297.609 50.5743C297.556 50.4421 297.562 50.3721 297.57 50.3413L296.6 50.0987C296.528 50.3879 296.574 50.6779 296.681 50.9457L297.609 50.5743ZM297.568 50.3499L308.368 10.2099L307.402 9.95009L296.602 50.0901L297.568 50.3499ZM308.37 10.2013C308.391 10.1167 308.415 10.1046 308.407 10.1104C308.398 10.1176 308.41 10.1 308.485 10.1V9.1C308.24 9.1 307.992 9.16244 307.783 9.32956C307.575 9.49543 307.459 9.7233 307.4 9.95873L308.37 10.2013ZM308.485 10.1C308.593 10.1 308.625 10.1239 308.626 10.1244C308.627 10.1251 308.63 10.1271 308.635 10.135C308.64 10.1439 308.651 10.1639 308.66 10.2013L309.63 9.95873C309.568 9.71003 309.438 9.47851 309.214 9.31563C308.995 9.15613 308.737 9.1 308.485 9.1V10.1ZM308.662 10.2106L319.522 50.3506L320.488 50.0894L309.628 9.94942L308.662 10.2106ZM319.558 50.4436C319.557 50.442 319.555 50.4374 319.554 50.4306C319.553 50.4276 319.553 50.4248 319.553 50.4227C319.553 50.4206 319.553 50.4196 319.553 50.4198C319.553 50.4209 319.55 50.4473 319.516 50.5028L320.374 51.0172C320.552 50.7208 320.632 50.3552 320.452 49.9964L319.558 50.4436ZM319.545 50.46C319.535 50.4729 319.528 50.4783 319.517 50.4831C319.503 50.4892 319.47 50.5 319.405 50.5V51.5C319.767 51.5 320.111 51.3717 320.345 51.06L319.545 50.46ZM319.405 50.5C319.33 50.5 319.318 50.4824 319.327 50.4896C319.335 50.4954 319.311 50.4833 319.29 50.3987L318.32 50.6413C318.379 50.8767 318.495 51.1046 318.703 51.2704C318.912 51.4376 319.16 51.5 319.405 51.5V50.5ZM319.287 50.3888L315.027 34.7288L314.063 34.9912L318.323 50.6512L319.287 50.3888ZM314.545 34.36H302.485V35.36H314.545V34.36ZM302.002 34.7305L297.802 50.3905L298.768 50.6495L302.968 34.9895L302.002 34.7305ZM297.8 50.3987C297.779 50.4833 297.755 50.4954 297.763 50.4896C297.772 50.4824 297.76 50.5 297.685 50.5V51.5C297.93 51.5 298.178 51.4376 298.387 51.2704C298.595 51.1046 298.711 50.8767 298.77 50.6413L297.8 50.3987ZM302.845 34.1H314.245V33.1H302.845V34.1ZM314.728 33.4697L309.028 12.3497L308.062 12.6103L313.762 33.7303L314.728 33.4697ZM308.062 12.3497L302.362 33.4697L303.328 33.7303L309.028 12.6103L308.062 12.3497ZM347.23 10.86H347.73V10.36H347.23V10.86ZM348.49 10.86V10.36H347.99V10.86H348.49ZM347.83 50.5C347.707 50.5 347.707 50.4696 347.734 50.4964C347.76 50.5233 347.73 50.5229 347.73 50.4H346.73C346.73 50.6771 346.8 50.9767 347.026 51.2036C347.253 51.4304 347.553 51.5 347.83 51.5V50.5ZM347.73 50.4V10.86H346.73V50.4H347.73ZM347.23 10.36H337.75V11.36H347.23V10.36ZM337.75 10.36C337.695 10.36 337.668 10.3522 337.66 10.3493C337.655 10.3474 337.662 10.3496 337.67 10.3587C337.686 10.3763 337.65 10.3541 337.65 10.2H336.65C336.65 10.4859 336.714 10.7937 336.93 11.0313C337.154 11.2781 337.46 11.36 337.75 11.36V10.36ZM337.65 10.2C337.65 10.0771 337.68 10.0767 337.654 10.1035C337.627 10.1304 337.627 10.1 337.75 10.1V9.1C337.473 9.1 337.173 9.1696 336.946 9.39644C336.72 9.62329 336.65 9.92293 336.65 10.2H337.65ZM337.75 10.1H357.97V9.1H337.75V10.1ZM357.97 10.1C358.093 10.1 358.093 10.1304 358.066 10.1035C358.04 10.0767 358.07 10.0771 358.07 10.2H359.07C359.07 9.92293 359 9.62329 358.774 9.39644C358.547 9.1696 358.247 9.1 357.97 9.1V10.1ZM358.07 10.2C358.07 10.3541 358.034 10.3763 358.05 10.3587C358.058 10.3496 358.065 10.3474 358.06 10.3493C358.052 10.3522 358.025 10.36 357.97 10.36V11.36C358.26 11.36 358.566 11.2781 358.79 11.0313C359.006 10.7937 359.07 10.4859 359.07 10.2H358.07ZM357.97 10.36H348.49V11.36H357.97V10.36ZM347.99 10.86V50.4H348.99V10.86H347.99ZM347.99 50.4C347.99 50.4555 347.982 50.4824 347.979 50.4904C347.977 50.4955 347.98 50.4883 347.989 50.48C348.006 50.464 347.984 50.5 347.83 50.5V51.5C348.116 51.5 348.424 51.436 348.661 51.22C348.908 50.9957 348.99 50.69 348.99 50.4H347.99ZM383.827 10.86V10.36H383.327V10.86H383.827ZM383.827 28.08H383.327V28.58H383.827V28.08ZM383.827 29.34V28.84H383.327V29.34H383.827ZM383.827 49.74H383.327V50.24H383.827V49.74ZM383.167 50.5C383.044 50.5 383.044 50.4696 383.071 50.4964C383.098 50.5233 383.067 50.5229 383.067 50.4H382.067C382.067 50.6771 382.137 50.9767 382.364 51.2036C382.59 51.4304 382.89 51.5 383.167 51.5V50.5ZM383.067 50.4V10.2H382.067V50.4H383.067ZM383.067 10.2C383.067 10.0771 383.098 10.0767 383.071 10.1035C383.044 10.1304 383.044 10.1 383.167 10.1V9.1C382.89 9.1 382.59 9.1696 382.364 9.39644C382.137 9.62329 382.067 9.92293 382.067 10.2H383.067ZM383.167 10.1H394.507V9.1H383.167V10.1ZM394.507 10.1C394.63 10.1 394.63 10.1304 394.604 10.1036C394.577 10.0767 394.607 10.0771 394.607 10.2H395.607C395.607 9.92293 395.538 9.62328 395.311 9.39644C395.084 9.1696 394.784 9.1 394.507 9.1V10.1ZM394.607 10.2C394.607 10.3541 394.571 10.3763 394.587 10.3587C394.595 10.3496 394.603 10.3474 394.598 10.3493C394.59 10.3522 394.563 10.36 394.507 10.36V11.36C394.797 11.36 395.103 11.2781 395.327 11.0313C395.543 10.7937 395.607 10.4859 395.607 10.2H394.607ZM394.507 10.36H383.827V11.36H394.507V10.36ZM383.327 10.86V28.08H384.327V10.86H383.327ZM383.827 28.58H393.907V27.58H383.827V28.58ZM393.907 28.58C394.03 28.58 394.03 28.6104 394.004 28.5836C393.977 28.5567 394.007 28.5571 394.007 28.68H395.007C395.007 28.4029 394.938 28.1033 394.711 27.8764C394.484 27.6496 394.184 27.58 393.907 27.58V28.58ZM394.007 28.68C394.007 28.8341 393.971 28.8563 393.987 28.8387C393.995 28.8296 394.003 28.8274 393.998 28.8293C393.99 28.8322 393.963 28.84 393.907 28.84V29.84C394.197 29.84 394.503 29.7581 394.727 29.5113C394.943 29.2737 395.007 28.9659 395.007 28.68H394.007ZM393.907 28.84H383.827V29.84H393.907V28.84ZM383.327 29.34V49.74H384.327V29.34H383.327ZM383.827 50.24H394.507V49.24H383.827V50.24ZM394.507 50.24C394.63 50.24 394.63 50.2704 394.604 50.2436C394.577 50.2167 394.607 50.2171 394.607 50.34H395.607C395.607 50.0629 395.538 49.7633 395.311 49.5364C395.084 49.3096 394.784 49.24 394.507 49.24V50.24ZM394.607 50.34C394.607 50.4941 394.571 50.5163 394.587 50.4987C394.595 50.4896 394.603 50.4874 394.598 50.4893C394.59 50.4922 394.563 50.5 394.507 50.5V51.5C394.797 51.5 395.103 51.4181 395.327 51.1713C395.543 50.9337 395.607 50.6259 395.607 50.34H394.607ZM394.507 50.5H383.167V51.5H394.507V50.5Z" fill="#232E3F"/>
<path d="M100.912 61.528C102.165 61.528 103.245 61.7872 104.152 62.3056C105.059 62.8096 105.815 63.5584 106.42 64.552L104.973 65.6752C104.44 64.7536 103.835 64.1056 103.158 63.7312C102.496 63.3424 101.69 63.148 100.739 63.148C99.976 63.148 99.3424 63.256 98.8384 63.472C98.3488 63.688 97.9888 63.976 97.7584 64.336C97.528 64.6816 97.4128 65.0776 97.4128 65.524C97.4128 66.028 97.5712 66.4744 97.888 66.8632C98.2048 67.2376 98.8384 67.5328 99.7888 67.7488L102.878 68.44C104.246 68.7424 105.196 69.2032 105.729 69.8224C106.276 70.4272 106.55 71.1832 106.55 72.0904C106.55 72.8968 106.319 73.6168 105.858 74.2504C105.412 74.8696 104.778 75.352 103.958 75.6976C103.137 76.0432 102.172 76.216 101.063 76.216C100.026 76.216 99.112 76.0792 98.32 75.8056C97.5424 75.5176 96.8728 75.136 96.3112 74.6608C95.7496 74.1856 95.2888 73.6528 94.9288 73.0624L96.4408 71.8312C96.7144 72.3784 97.0672 72.8608 97.4992 73.2784C97.9312 73.696 98.4496 74.02 99.0544 74.2504C99.6736 74.4808 100.379 74.596 101.171 74.596C101.906 74.596 102.539 74.5096 103.072 74.3368C103.619 74.1496 104.037 73.8832 104.325 73.5376C104.613 73.1776 104.757 72.7456 104.757 72.2416C104.757 71.7808 104.606 71.3704 104.303 71.0104C104.001 70.636 103.432 70.3552 102.597 70.168L99.2488 69.412C98.3704 69.2104 97.6576 68.9368 97.1104 68.5912C96.5776 68.2312 96.1888 67.8136 95.944 67.3384C95.7136 66.8488 95.5984 66.3232 95.5984 65.7616C95.5984 64.9984 95.8072 64.3 96.2248 63.6664C96.6568 63.0184 97.2688 62.5 98.0608 62.1112C98.8672 61.7224 99.8176 61.528 100.912 61.528ZM110.605 63.1264C110.216 63.1264 109.899 63.0112 109.654 62.7808C109.424 62.536 109.309 62.2192 109.309 61.8304C109.309 61.4416 109.424 61.132 109.654 60.9016C109.899 60.6568 110.216 60.5344 110.605 60.5344C110.994 60.5344 111.303 60.6568 111.534 60.9016C111.778 61.132 111.901 61.4416 111.901 61.8304C111.901 62.2192 111.778 62.536 111.534 62.7808C111.303 63.0112 110.994 63.1264 110.605 63.1264ZM111.469 65.2V76H109.741V65.2H111.469ZM115.478 76V65.2H116.99L117.098 66.8848C117.487 66.2224 117.991 65.74 118.61 65.4376C119.244 65.1352 119.892 64.984 120.554 64.984C121.318 64.984 122.038 65.1568 122.714 65.5024C123.391 65.848 123.91 66.3808 124.27 67.1008C124.5 66.6112 124.824 66.2152 125.242 65.9128C125.659 65.596 126.113 65.3656 126.602 65.2216C127.106 65.0632 127.582 64.984 128.028 64.984C128.719 64.984 129.374 65.128 129.994 65.416C130.627 65.704 131.146 66.1504 131.549 66.7552C131.952 67.36 132.154 68.1376 132.154 69.088V76H130.426V69.2608C130.426 68.2816 130.181 67.576 129.691 67.144C129.202 66.712 128.597 66.496 127.877 66.496C127.315 66.496 126.79 66.6328 126.3 66.9064C125.81 67.18 125.414 67.5832 125.112 68.116C124.824 68.6488 124.68 69.304 124.68 70.0816V76H122.952V69.2608C122.952 68.2816 122.707 67.576 122.218 67.144C121.728 66.712 121.123 66.496 120.403 66.496C119.928 66.496 119.438 66.6256 118.934 66.8848C118.445 67.1296 118.034 67.5256 117.703 68.0728C117.372 68.62 117.206 69.34 117.206 70.2328V76H115.478ZM136.066 80.536V65.2H137.578L137.729 67.8352L137.491 67.5328C137.679 67.0288 137.959 66.5896 138.334 66.2152C138.708 65.8264 139.162 65.524 139.695 65.308C140.227 65.092 140.803 64.984 141.423 64.984C142.301 64.984 143.107 65.2072 143.842 65.6536C144.591 66.1 145.188 66.7408 145.635 67.576C146.081 68.4112 146.304 69.4192 146.304 70.6C146.304 71.7664 146.074 72.7744 145.613 73.624C145.167 74.4592 144.569 75.1 143.82 75.5464C143.071 75.9928 142.251 76.216 141.358 76.216C140.465 76.216 139.68 76 139.003 75.568C138.341 75.1216 137.866 74.56 137.578 73.8832L137.794 73.5592V80.536H136.066ZM141.185 74.704C142.251 74.704 143.079 74.3296 143.669 73.5808C144.274 72.832 144.576 71.8384 144.576 70.6C144.576 69.3616 144.281 68.368 143.691 67.6192C143.115 66.8704 142.301 66.496 141.25 66.496C140.559 66.496 139.954 66.6688 139.435 67.0144C138.917 67.3456 138.514 67.8208 138.226 68.44C137.938 69.0448 137.794 69.7648 137.794 70.6C137.794 71.4208 137.931 72.1408 138.204 72.76C138.492 73.3792 138.888 73.8616 139.392 74.2072C139.911 74.5384 140.508 74.704 141.185 74.704ZM151.25 60.232V73.2568C151.25 73.804 151.35 74.1856 151.552 74.4016C151.754 74.6032 152.078 74.704 152.524 74.704C152.812 74.704 153.05 74.6824 153.237 74.6392C153.424 74.596 153.676 74.5168 153.993 74.4016L153.712 75.9136C153.482 76.0144 153.23 76.0864 152.956 76.1296C152.682 76.1872 152.402 76.216 152.114 76.216C151.235 76.216 150.58 75.9784 150.148 75.5032C149.73 75.028 149.522 74.3008 149.522 73.3216V60.232H151.25ZM160.725 76.216C159.702 76.216 158.788 75.9928 157.982 75.5464C157.19 75.1 156.57 74.4592 156.124 73.624C155.678 72.7744 155.454 71.7664 155.454 70.6C155.454 69.4336 155.678 68.4328 156.124 67.5976C156.57 66.748 157.182 66.1 157.96 65.6536C158.738 65.2072 159.623 64.984 160.617 64.984C161.625 64.984 162.482 65.2 163.187 65.632C163.907 66.064 164.454 66.6544 164.829 67.4032C165.203 68.1376 165.39 68.9656 165.39 69.8872C165.39 70.132 165.383 70.3552 165.369 70.5568C165.354 70.7584 165.333 70.9384 165.304 71.0968H156.578V69.5632H164.548L163.662 69.736C163.662 68.6992 163.374 67.9 162.798 67.3384C162.237 66.7768 161.495 66.496 160.574 66.496C159.868 66.496 159.256 66.6616 158.738 66.9928C158.234 67.3096 157.838 67.7776 157.55 68.3968C157.276 69.0016 157.139 69.736 157.139 70.6C157.139 71.4496 157.283 72.184 157.571 72.8032C157.859 73.4224 158.262 73.8976 158.781 74.2288C159.314 74.5456 159.947 74.704 160.682 74.704C161.474 74.704 162.114 74.5528 162.604 74.2504C163.108 73.948 163.511 73.5376 163.814 73.0192L165.174 73.8184C164.901 74.308 164.548 74.7328 164.116 75.0928C163.698 75.4528 163.202 75.7336 162.626 75.9352C162.064 76.1224 161.43 76.216 160.725 76.216ZM180.51 64.984C181.258 64.984 181.914 65.0992 182.475 65.3296C183.051 65.56 183.548 65.8912 183.966 66.3232C184.383 66.7552 184.722 67.2664 184.981 67.8568L183.339 68.6344C183.109 67.9432 182.756 67.4176 182.281 67.0576C181.82 66.6832 181.215 66.496 180.466 66.496C179.746 66.496 179.127 66.6616 178.609 66.9928C178.09 67.3096 177.694 67.7776 177.421 68.3968C177.147 69.0016 177.01 69.736 177.01 70.6C177.01 71.4496 177.147 72.184 177.421 72.8032C177.694 73.4224 178.09 73.8976 178.609 74.2288C179.127 74.5456 179.746 74.704 180.466 74.704C181.028 74.704 181.51 74.6176 181.914 74.4448C182.331 74.272 182.67 74.02 182.929 73.6888C183.202 73.3576 183.39 72.9544 183.49 72.4792L185.089 73.0408C184.844 73.7032 184.506 74.272 184.074 74.7472C183.656 75.2224 183.145 75.5896 182.54 75.8488C181.95 76.0936 181.273 76.216 180.51 76.216C179.502 76.216 178.602 75.9928 177.81 75.5464C177.018 75.1 176.398 74.4592 175.952 73.624C175.506 72.7744 175.282 71.7664 175.282 70.6C175.282 69.4336 175.506 68.4328 175.952 67.5976C176.398 66.748 177.018 66.1 177.81 65.6536C178.602 65.2072 179.502 64.984 180.51 64.984ZM192.596 64.984C193.619 64.984 194.519 65.2072 195.296 65.6536C196.088 66.1 196.708 66.748 197.154 67.5976C197.6 68.4328 197.824 69.4336 197.824 70.6C197.824 71.7664 197.6 72.7744 197.154 73.624C196.708 74.4592 196.088 75.1 195.296 75.5464C194.519 75.9928 193.619 76.216 192.596 76.216C191.588 76.216 190.688 75.9928 189.896 75.5464C189.104 75.1 188.485 74.4592 188.039 73.624C187.592 72.7744 187.369 71.7664 187.369 70.6C187.369 69.4336 187.592 68.4328 188.039 67.5976C188.485 66.748 189.104 66.1 189.896 65.6536C190.688 65.2072 191.588 64.984 192.596 64.984ZM192.596 66.4744C191.862 66.4744 191.236 66.64 190.717 66.9712C190.199 67.3024 189.796 67.7776 189.508 68.3968C189.234 69.0016 189.097 69.736 189.097 70.6C189.097 71.4496 189.234 72.184 189.508 72.8032C189.796 73.4224 190.199 73.8976 190.717 74.2288C191.236 74.56 191.862 74.7256 192.596 74.7256C193.331 74.7256 193.957 74.56 194.476 74.2288C194.994 73.8976 195.39 73.4224 195.664 72.8032C195.952 72.184 196.096 71.4496 196.096 70.6C196.096 69.736 195.952 69.0016 195.664 68.3968C195.39 67.7776 194.994 67.3024 194.476 66.9712C193.957 66.64 193.331 66.4744 192.596 66.4744ZM205.548 64.984C206.57 64.984 207.47 65.2072 208.248 65.6536C209.04 66.1 209.659 66.748 210.106 67.5976C210.552 68.4328 210.775 69.4336 210.775 70.6C210.775 71.7664 210.552 72.7744 210.106 73.624C209.659 74.4592 209.04 75.1 208.248 75.5464C207.47 75.9928 206.57 76.216 205.548 76.216C204.54 76.216 203.64 75.9928 202.848 75.5464C202.056 75.1 201.437 74.4592 200.99 73.624C200.544 72.7744 200.321 71.7664 200.321 70.6C200.321 69.4336 200.544 68.4328 200.99 67.5976C201.437 66.748 202.056 66.1 202.848 65.6536C203.64 65.2072 204.54 64.984 205.548 64.984ZM205.548 66.4744C204.814 66.4744 204.187 66.64 203.669 66.9712C203.15 67.3024 202.747 67.7776 202.459 68.3968C202.186 69.0016 202.049 69.736 202.049 70.6C202.049 71.4496 202.186 72.184 202.459 72.8032C202.747 73.4224 203.15 73.8976 203.669 74.2288C204.187 74.56 204.814 74.7256 205.548 74.7256C206.282 74.7256 206.909 74.56 207.427 74.2288C207.946 73.8976 208.342 73.4224 208.615 72.8032C208.903 72.184 209.047 71.4496 209.047 70.6C209.047 69.736 208.903 69.0016 208.615 68.3968C208.342 67.7776 207.946 67.3024 207.427 66.9712C206.909 66.64 206.282 66.4744 205.548 66.4744ZM223.511 65.2L218.845 69.8656L218.435 70.276L214.892 73.8184V71.6584L221.329 65.2H223.511ZM215.756 60.232V76H214.028V60.232H215.756ZM218.996 68.98L223.77 76H221.675L217.549 69.952L218.996 68.98ZM227.148 63.1264C226.759 63.1264 226.442 63.0112 226.197 62.7808C225.967 62.536 225.852 62.2192 225.852 61.8304C225.852 61.4416 225.967 61.132 226.197 60.9016C226.442 60.6568 226.759 60.5344 227.148 60.5344C227.537 60.5344 227.846 60.6568 228.077 60.9016C228.321 61.132 228.444 61.4416 228.444 61.8304C228.444 62.2192 228.321 62.536 228.077 62.7808C227.846 63.0112 227.537 63.1264 227.148 63.1264ZM228.012 65.2V76H226.284V65.2H228.012ZM232.021 76V65.2H233.533L233.684 67.6192L233.404 67.3816C233.634 66.8056 233.944 66.3448 234.332 65.9992C234.721 65.6392 235.168 65.38 235.672 65.2216C236.19 65.0632 236.723 64.984 237.27 64.984C238.048 64.984 238.753 65.1352 239.387 65.4376C240.02 65.7256 240.524 66.172 240.899 66.7768C241.288 67.3816 241.482 68.152 241.482 69.088V76H239.754V69.6928C239.754 68.4976 239.495 67.6696 238.976 67.2088C238.472 66.7336 237.846 66.496 237.097 66.496C236.579 66.496 236.06 66.6184 235.542 66.8632C235.024 67.108 234.592 67.504 234.246 68.0512C233.915 68.5984 233.749 69.3328 233.749 70.2544V76H232.021ZM254.488 63.2128L254.877 64.7464C254.863 64.7464 254.841 64.7464 254.812 64.7464C254.784 64.7464 254.755 64.7464 254.726 64.7464C254.02 64.7464 253.473 64.8904 253.084 65.1784C252.71 65.452 252.523 65.8984 252.523 66.5176L251.464 65.9776C251.464 65.416 251.594 64.9264 251.853 64.5088C252.112 64.0912 252.465 63.7744 252.912 63.5584C253.358 63.328 253.848 63.2128 254.38 63.2128C254.395 63.2128 254.409 63.2128 254.424 63.2128C254.452 63.2128 254.474 63.2128 254.488 63.2128ZM251.205 74.6176C252.228 74.6176 253.027 74.8552 253.603 75.3304C254.179 75.7912 254.467 76.4104 254.467 77.188C254.467 77.8936 254.229 78.5056 253.754 79.024C253.293 79.5424 252.667 79.9384 251.875 80.212C251.097 80.5 250.219 80.644 249.24 80.644C247.54 80.644 246.266 80.356 245.416 79.78C244.581 79.204 244.164 78.5128 244.164 77.7064C244.164 77.1304 244.351 76.612 244.725 76.1512C245.114 75.7048 245.762 75.4528 246.669 75.3952L246.518 75.7192C246.028 75.5896 245.611 75.3736 245.265 75.0712C244.934 74.7544 244.768 74.3008 244.768 73.7104C244.768 73.12 244.984 72.616 245.416 72.1984C245.863 71.7664 246.518 71.5 247.382 71.3992L248.527 71.9824H248.311C247.605 72.0544 247.101 72.2344 246.799 72.5224C246.511 72.796 246.367 73.0984 246.367 73.4296C246.367 73.8328 246.511 74.1352 246.799 74.3368C247.101 74.524 247.519 74.6176 248.052 74.6176H251.205ZM249.218 79.1968C250.053 79.1968 250.737 79.1104 251.27 78.9376C251.817 78.7648 252.22 78.5416 252.48 78.268C252.739 77.9944 252.868 77.6992 252.868 77.3824C252.868 76.9936 252.71 76.684 252.393 76.4536C252.091 76.2232 251.536 76.108 250.73 76.108H247.404C246.943 76.108 246.554 76.2232 246.237 76.4536C245.92 76.6984 245.762 77.0296 245.762 77.4472C245.762 77.98 246.064 78.4048 246.669 78.7216C247.288 79.0384 248.138 79.1968 249.218 79.1968ZM249.067 64.984C249.931 64.984 250.694 65.1424 251.356 65.4592C252.033 65.7616 252.559 66.1864 252.933 66.7336C253.308 67.2808 253.495 67.9144 253.495 68.6344C253.495 69.34 253.308 69.9736 252.933 70.5352C252.559 71.0824 252.033 71.5144 251.356 71.8312C250.694 72.1336 249.931 72.2848 249.067 72.2848C247.641 72.2848 246.547 71.9464 245.784 71.2696C245.02 70.5784 244.639 69.7 244.639 68.6344C244.639 67.9144 244.826 67.2808 245.2 66.7336C245.589 66.1864 246.115 65.7616 246.777 65.4592C247.44 65.1424 248.203 64.984 249.067 64.984ZM249.067 66.388C248.318 66.388 247.692 66.5968 247.188 67.0144C246.684 67.4176 246.432 67.9576 246.432 68.6344C246.432 69.2968 246.684 69.8368 247.188 70.2544C247.692 70.672 248.318 70.8808 249.067 70.8808C249.816 70.8808 250.442 70.672 250.946 70.2544C251.45 69.8368 251.702 69.2968 251.702 68.6344C251.702 67.9576 251.45 67.4176 250.946 67.0144C250.442 66.5968 249.816 66.388 249.067 66.388ZM266.379 62.1328V73.0192C266.379 73.552 266.531 73.948 266.833 74.2072C267.135 74.4664 267.524 74.596 267.999 74.596C268.417 74.596 268.777 74.524 269.079 74.38C269.382 74.236 269.655 74.0416 269.9 73.7968L270.505 75.244C270.174 75.5464 269.778 75.784 269.317 75.9568C268.871 76.1296 268.352 76.216 267.762 76.216C267.215 76.216 266.703 76.1224 266.228 75.9352C265.753 75.7336 265.371 75.424 265.083 75.0064C264.81 74.5744 264.666 74.0128 264.651 73.3216V62.608L266.379 62.1328ZM270.311 65.2V66.6904H262.491V65.2H270.311ZM277.351 64.984C278.373 64.984 279.273 65.2072 280.051 65.6536C280.843 66.1 281.462 66.748 281.909 67.5976C282.355 68.4328 282.578 69.4336 282.578 70.6C282.578 71.7664 282.355 72.7744 281.909 73.624C281.462 74.4592 280.843 75.1 280.051 75.5464C279.273 75.9928 278.373 76.216 277.351 76.216C276.343 76.216 275.443 75.9928 274.651 75.5464C273.859 75.1 273.24 74.4592 272.793 73.624C272.347 72.7744 272.124 71.7664 272.124 70.6C272.124 69.4336 272.347 68.4328 272.793 67.5976C273.24 66.748 273.859 66.1 274.651 65.6536C275.443 65.2072 276.343 64.984 277.351 64.984ZM277.351 66.4744C276.617 66.4744 275.99 66.64 275.472 66.9712C274.953 67.3024 274.55 67.7776 274.262 68.3968C273.989 69.0016 273.852 69.736 273.852 70.6C273.852 71.4496 273.989 72.184 274.262 72.8032C274.55 73.4224 274.953 73.8976 275.472 74.2288C275.99 74.56 276.617 74.7256 277.351 74.7256C278.085 74.7256 278.712 74.56 279.23 74.2288C279.749 73.8976 280.145 73.4224 280.418 72.8032C280.706 72.184 280.85 71.4496 280.85 70.6C280.85 69.736 280.706 69.0016 280.418 68.3968C280.145 67.7776 279.749 67.3024 279.23 66.9712C278.712 66.64 278.085 66.4744 277.351 66.4744ZM301.522 65.2L296.446 77.8144C296.173 78.52 295.87 79.0744 295.539 79.4776C295.222 79.8952 294.862 80.1904 294.459 80.3632C294.07 80.5504 293.617 80.644 293.098 80.644C292.609 80.644 292.155 80.572 291.738 80.428C291.334 80.2984 290.974 80.1184 290.658 79.888L291.133 78.376C291.421 78.6352 291.723 78.8224 292.04 78.9376C292.371 79.0672 292.695 79.132 293.012 79.132C293.386 79.132 293.739 79.0168 294.07 78.7864C294.402 78.556 294.704 78.088 294.978 77.3824L295.539 75.9784L294.459 73.408L291.025 65.2H292.99L295.69 72.2416L296.36 74.164L297.138 72.0256L299.665 65.2H301.522ZM308.253 64.984C309.276 64.984 310.176 65.2072 310.953 65.6536C311.745 66.1 312.365 66.748 312.811 67.5976C313.257 68.4328 313.481 69.4336 313.481 70.6C313.481 71.7664 313.257 72.7744 312.811 73.624C312.365 74.4592 311.745 75.1 310.953 75.5464C310.176 75.9928 309.276 76.216 308.253 76.216C307.245 76.216 306.345 75.9928 305.553 75.5464C304.761 75.1 304.142 74.4592 303.696 73.624C303.249 72.7744 303.026 71.7664 303.026 70.6C303.026 69.4336 303.249 68.4328 303.696 67.5976C304.142 66.748 304.761 66.1 305.553 65.6536C306.345 65.2072 307.245 64.984 308.253 64.984ZM308.253 66.4744C307.519 66.4744 306.893 66.64 306.374 66.9712C305.856 67.3024 305.453 67.7776 305.165 68.3968C304.891 69.0016 304.754 69.736 304.754 70.6C304.754 71.4496 304.891 72.184 305.165 72.8032C305.453 73.4224 305.856 73.8976 306.374 74.2288C306.893 74.56 307.519 74.7256 308.253 74.7256C308.988 74.7256 309.614 74.56 310.133 74.2288C310.651 73.8976 311.047 73.4224 311.321 72.8032C311.609 72.184 311.753 71.4496 311.753 70.6C311.753 69.736 311.609 69.0016 311.321 68.3968C311.047 67.7776 310.651 67.3024 310.133 66.9712C309.614 66.64 308.988 66.4744 308.253 66.4744ZM320.643 76.216C319.952 76.216 319.297 76.0864 318.678 75.8272C318.073 75.568 317.576 75.1504 317.187 74.5744C316.813 73.984 316.626 73.2208 316.626 72.2848V65.2H318.354V71.8312C318.354 72.9256 318.591 73.6816 319.067 74.0992C319.542 74.5024 320.211 74.704 321.075 74.704C321.479 74.704 321.875 74.6392 322.263 74.5096C322.652 74.3656 322.998 74.1496 323.3 73.8616C323.617 73.5592 323.862 73.1776 324.035 72.7168C324.222 72.256 324.315 71.7088 324.315 71.0752V65.2H326.043V76H324.531L324.423 74.3584C324.049 75.0064 323.538 75.4816 322.89 75.784C322.256 76.072 321.507 76.216 320.643 76.216ZM330.065 76V65.2H331.469L331.707 66.9712C332.009 66.3088 332.448 65.812 333.024 65.4808C333.615 65.1496 334.327 64.984 335.163 64.984C335.35 64.984 335.551 64.9984 335.767 65.0272C335.998 65.056 336.192 65.1136 336.351 65.2L336.048 66.7768C335.89 66.7192 335.717 66.676 335.53 66.6472C335.343 66.6184 335.076 66.604 334.731 66.604C334.284 66.604 333.831 66.7336 333.37 66.9928C332.923 67.252 332.549 67.648 332.247 68.1808C331.944 68.6992 331.793 69.3616 331.793 70.168V76H330.065ZM345.738 80.536V65.2H347.25L347.401 67.8352L347.163 67.5328C347.351 67.0288 347.631 66.5896 348.006 66.2152C348.38 65.8264 348.834 65.524 349.367 65.308C349.899 65.092 350.475 64.984 351.095 64.984C351.973 64.984 352.779 65.2072 353.514 65.6536C354.263 66.1 354.86 66.7408 355.307 67.576C355.753 68.4112 355.976 69.4192 355.976 70.6C355.976 71.7664 355.746 72.7744 355.285 73.624C354.839 74.4592 354.241 75.1 353.492 75.5464C352.743 75.9928 351.923 76.216 351.03 76.216C350.137 76.216 349.352 76 348.675 75.568C348.013 75.1216 347.538 74.56 347.25 73.8832L347.466 73.5592V80.536H345.738ZM350.857 74.704C351.923 74.704 352.751 74.3296 353.341 73.5808C353.946 72.832 354.248 71.8384 354.248 70.6C354.248 69.3616 353.953 68.368 353.363 67.6192C352.787 66.8704 351.973 66.496 350.922 66.496C350.231 66.496 349.626 66.6688 349.107 67.0144C348.589 67.3456 348.186 67.8208 347.898 68.44C347.61 69.0448 347.466 69.7648 347.466 70.6C347.466 71.4208 347.603 72.1408 347.876 72.76C348.164 73.3792 348.56 73.8616 349.064 74.2072C349.583 74.5384 350.18 74.704 350.857 74.704ZM360.921 60.232V73.2568C360.921 73.804 361.022 74.1856 361.224 74.4016C361.425 74.6032 361.749 74.704 362.196 74.704C362.484 74.704 362.721 74.6824 362.909 74.6392C363.096 74.596 363.348 74.5168 363.665 74.4016L363.384 75.9136C363.153 76.0144 362.901 76.0864 362.628 76.1296C362.354 76.1872 362.073 76.216 361.785 76.216C360.907 76.216 360.252 75.9784 359.82 75.5032C359.402 75.028 359.193 74.3008 359.193 73.3216V60.232H360.921ZM372.189 69.0232C372.189 68.2168 371.973 67.5976 371.541 67.1656C371.109 66.7192 370.497 66.496 369.705 66.496C368.957 66.496 368.323 66.6616 367.805 66.9928C367.286 67.3096 366.905 67.828 366.66 68.548L365.256 67.684C365.544 66.8776 366.077 66.2296 366.854 65.74C367.632 65.236 368.597 64.984 369.749 64.984C370.526 64.984 371.232 65.1208 371.865 65.3944C372.499 65.6536 372.996 66.0568 373.356 66.604C373.73 67.1368 373.917 67.828 373.917 68.6776V73.9048C373.917 74.4232 374.191 74.6824 374.738 74.6824C375.012 74.6824 375.278 74.6464 375.537 74.5744L375.451 75.9352C375.163 76.0792 374.789 76.1512 374.328 76.1512C373.91 76.1512 373.536 76.072 373.205 75.9136C372.873 75.7552 372.614 75.5176 372.427 75.2008C372.24 74.8696 372.146 74.4592 372.146 73.9696V73.7536L372.578 73.8184C372.405 74.38 372.11 74.8408 371.693 75.2008C371.275 75.5464 370.807 75.8056 370.289 75.9784C369.77 76.1368 369.259 76.216 368.755 76.216C368.121 76.216 367.531 76.108 366.984 75.892C366.437 75.676 365.997 75.352 365.666 74.92C365.349 74.4736 365.191 73.9264 365.191 73.2784C365.191 72.472 365.457 71.8096 365.99 71.2912C366.537 70.7584 367.293 70.3984 368.258 70.2112L372.535 69.3688V70.7944L369.057 71.5072C368.352 71.6512 367.826 71.8528 367.481 72.112C367.135 72.3712 366.962 72.7312 366.962 73.192C366.962 73.6384 367.135 74.0056 367.481 74.2936C367.841 74.5672 368.345 74.704 368.993 74.704C369.41 74.704 369.806 74.6536 370.181 74.5528C370.569 74.4376 370.915 74.272 371.217 74.056C371.52 73.8256 371.757 73.5448 371.93 73.2136C372.103 72.868 372.189 72.4648 372.189 72.004V69.0232ZM380.244 62.1328V73.0192C380.244 73.552 380.395 73.948 380.697 74.2072C381 74.4664 381.388 74.596 381.864 74.596C382.281 74.596 382.641 74.524 382.944 74.38C383.246 74.236 383.52 74.0416 383.764 73.7968L384.369 75.244C384.038 75.5464 383.642 75.784 383.181 75.9568C382.735 76.1296 382.216 76.216 381.626 76.216C381.079 76.216 380.568 76.1224 380.092 75.9352C379.617 75.7336 379.236 75.424 378.948 75.0064C378.674 74.5744 378.53 74.0128 378.516 73.3216V62.608L380.244 62.1328ZM384.175 65.2V66.6904H376.356V65.2H384.175ZM391.258 76.216C390.236 76.216 389.322 75.9928 388.515 75.5464C387.723 75.1 387.104 74.4592 386.658 73.624C386.211 72.7744 385.988 71.7664 385.988 70.6C385.988 69.4336 386.211 68.4328 386.658 67.5976C387.104 66.748 387.716 66.1 388.494 65.6536C389.271 65.2072 390.157 64.984 391.15 64.984C392.158 64.984 393.015 65.2 393.721 65.632C394.441 66.064 394.988 66.6544 395.362 67.4032C395.737 68.1376 395.924 68.9656 395.924 69.8872C395.924 70.132 395.917 70.3552 395.902 70.5568C395.888 70.7584 395.866 70.9384 395.838 71.0968H387.111V69.5632H395.082L394.196 69.736C394.196 68.6992 393.908 67.9 393.332 67.3384C392.77 66.7768 392.029 66.496 391.107 66.496C390.402 66.496 389.79 66.6616 389.271 66.9928C388.767 67.3096 388.371 67.7776 388.083 68.3968C387.81 69.0016 387.673 69.736 387.673 70.6C387.673 71.4496 387.817 72.184 388.105 72.8032C388.393 73.4224 388.796 73.8976 389.314 74.2288C389.847 74.5456 390.481 74.704 391.215 74.704C392.007 74.704 392.648 74.5528 393.138 74.2504C393.642 73.948 394.045 73.5376 394.347 73.0192L395.708 73.8184C395.434 74.308 395.082 74.7328 394.65 75.0928C394.232 75.4528 393.735 75.7336 393.159 75.9352C392.598 76.1224 391.964 76.216 391.258 76.216Z" fill="#232E3F"/>
<path d="M38.2523 83.9766C28.4738 83.0194 19.6868 79.0051 12.799 72.3482C6.37028 66.1349 2.0322 57.9912 0.558643 49.3698C0.0774497 46.5545 -0.00673616 45.424 0.000401771 41.8729C0.00620422 38.9858 0.0524952 38.0768 0.274393 36.4929C0.968398 31.5396 2.07482 27.8865 4.20145 23.5269C7.09287 17.5994 11.1004 12.681 16.3814 8.5788C21.2725 4.77937 27.1014 2.09598 33.2769 0.80072C36.5586 0.112406 37.7787 0 41.9686 0C45.8722 0 46.6127 0.0553113 49.5229 0.564282C58.0709 2.05927 66.0611 6.33993 72.2043 12.7154C78.7181 19.4757 82.8629 28.3523 83.8131 37.5771C84.0329 39.7113 84.0646 43.8193 83.8774 45.8957C83.1065 54.4432 79.5808 62.7385 73.9107 69.3457C68.6291 75.5001 61.2668 80.2226 53.46 82.4634C49.4591 83.6119 47.0734 83.9405 42.395 83.9875C40.3846 84.0078 38.5204 84.0028 38.2523 83.9766ZM45.4411 82.7043C60.8207 81.3911 74.3122 71.3 80.0319 56.8318C81.7525 52.4794 82.6262 48.0614 82.7495 43.0892C82.8256 40.0242 82.7078 38.0665 82.2876 35.4122C80.998 27.2655 76.844 19.1467 70.9064 13.1679C64.9351 7.15502 57.2336 3.13704 48.9454 1.71048C45.8846 1.18365 41.0786 0.993555 38.1739 1.28441C26.1547 2.48789 15.7339 8.52359 8.69704 18.3574C4.76573 23.8512 2.37732 30.0421 1.4354 37.1798C1.18184 39.1011 1.14824 44.5647 1.37841 46.4442C2.87913 58.6991 9.07657 69.0087 19.0276 75.804C24.7177 79.6897 30.777 81.9024 37.765 82.6465C39.5854 82.8403 43.5024 82.8698 45.4411 82.7043ZM37.8259 80.9424C30.733 80.1577 24.2648 77.6022 18.5761 73.3369C15.6195 71.1201 12.7392 68.2417 10.5526 65.3187C7.99151 61.8951 5.76251 57.4654 4.52066 53.3316C0.671351 40.5182 3.59383 26.6236 12.251 16.5785C17.9918 9.91739 25.7296 5.35572 34.2373 3.61695C36.8998 3.07281 38.4611 2.93555 41.9686 2.93724C45.535 2.93908 46.8909 3.06303 49.8333 3.65693C55.7063 4.84232 61.5551 7.57095 66.2787 11.3292C67.9627 12.6691 71.4234 16.1737 72.7261 17.8585C77.545 24.0908 80.2911 31.0348 80.9674 38.6979C81.1696 40.9895 81.0508 45.4894 80.7339 47.5413C79.4581 55.801 75.7584 63.3168 70.1215 69.0996C63.3127 76.0847 54.8002 80.159 45.2583 80.9995C43.3909 81.164 39.5631 81.1346 37.8259 80.9424ZM46.9968 79.8551C51.4548 79.2197 55.147 78.065 59.0917 76.0725C66.7458 72.2063 72.7471 66.0384 76.5134 58.167C78.7599 53.472 79.9077 48.6202 80.0653 43.1529C80.3004 34.9966 78.2027 27.6487 73.7141 20.906C68.3129 12.7925 60.2677 7.12446 51.0459 4.93596C41.7113 2.72067 32.2503 3.90677 23.9966 8.32707C17.0377 12.0539 11.2979 17.9759 7.84646 24.9897C6.58211 27.559 5.69731 29.884 5.10702 32.1882C3.13082 39.9025 3.49773 47.8374 6.16926 55.1601C7.45222 58.6768 9.8388 62.9273 12.1924 65.8874C13.3412 67.3323 16.678 70.6406 18.2091 71.8526C24.2848 76.6623 31.0341 79.3566 38.8006 80.0724C40.0389 80.1866 45.7299 80.0357 46.9968 79.8551ZM40.3786 75.3588C39.6725 75.1591 39.0225 74.757 38.6041 74.2613C38.114 73.6806 37.7066 72.7193 37.7052 72.1404C37.7043 71.643 37.6905 71.6256 37.2471 71.5526C35.1504 71.2073 32.9575 70.619 31.1854 69.9265C30.6493 69.717 30.1771 69.5453 30.136 69.545C30.095 69.5446 30.0249 69.8555 29.9802 70.2357C29.8249 71.5583 29.2194 72.4877 28.1734 73.0091C26.4497 73.8685 24.2567 72.9717 23.6377 71.1542C23.4048 70.4705 23.4034 69.9804 23.6275 67.6559C23.7244 66.6508 23.7648 65.7978 23.7174 65.7604C23.6699 65.723 23.357 65.4771 23.0219 65.214C22.1016 64.4914 19.7428 62.1652 18.884 61.1333C15.4711 57.0325 13.3482 52.425 12.3408 46.9318C12.0258 45.2138 11.8974 40.7995 12.1084 38.9378C12.748 33.294 15.0057 27.8756 18.5551 23.4659C22.7894 18.2052 29.3105 14.1381 35.5216 12.8841L36.6684 12.6526L36.7323 10.0204C36.7947 7.45203 36.8034 7.38066 37.0886 7.07685C38.1425 5.95458 40.248 7.84932 41.6194 11.1539C41.828 11.6568 42.0605 12.1085 42.136 12.1577C42.2114 12.207 42.6584 12.2481 43.1293 12.2492C44.7205 12.2529 47.4313 12.6565 49.401 13.1836C53.4708 14.2725 56.588 15.7871 59.9966 18.3316C66.3885 23.1031 70.5767 30.2543 71.6516 38.2322C71.9124 40.1673 71.9162 43.977 71.6592 45.8389C70.9791 50.7677 69.1327 55.4627 66.2917 59.4876C64.2606 62.3651 61.5641 65.0155 58.7509 66.8996L57.805 67.5331L57.883 69.0091C57.9467 70.2121 57.9237 70.5979 57.7587 71.0948C57.4877 71.9112 56.8489 72.6288 56.041 73.0242C55.4582 73.3095 55.2604 73.344 54.4297 73.3054C53.62 73.2678 53.4042 73.2083 52.9399 72.8952C52.2464 72.4274 51.6245 71.6114 51.4425 70.9308C51.3641 70.6376 51.2623 70.3977 51.2163 70.3977C51.1702 70.3977 50.7841 70.5027 50.3582 70.6309C49.0536 71.0237 47.5661 71.3527 46.4159 71.5028C44.9659 71.6921 45.0505 71.6489 44.955 72.2483C44.7571 73.49 43.9324 74.6428 42.8757 75.155C42.2348 75.4656 41.0873 75.5592 40.3786 75.3588ZM42.4559 73.991C43.1929 73.6115 43.6744 72.7554 43.6744 71.8246C43.6744 71.4629 43.5384 69.7185 43.3722 67.9482C42.8536 62.4236 42.5641 57.2721 42.4909 52.265L42.4209 47.4804H41.4214H40.4219L40.3484 51.5945C40.2518 57.0087 39.9282 61.6686 39.0934 69.6663C38.8359 72.1337 38.8951 72.6699 39.4996 73.3393C39.9792 73.8703 40.2573 74.0503 40.8111 74.188C41.255 74.2984 42.0421 74.2041 42.4559 73.991ZM27.8018 71.7816C28.3838 71.3469 28.6082 70.929 28.6585 70.1861C28.6847 69.7996 28.5116 67.399 28.2739 64.8513C27.532 56.9011 27.1927 52.0105 26.9755 46.1395C26.7531 40.1286 26.9183 39.4164 28.9347 37.6889C30.4705 36.3733 30.8382 35.3134 30.4124 33.4295L30.2535 32.7267L26.6995 32.759L23.1455 32.7913L22.998 33.5837C22.6319 35.5503 22.8798 36.2051 24.5814 37.7654C25.4444 38.5566 25.8414 39.021 26.0927 39.5329C26.4311 40.2224 26.4338 40.2471 26.4758 43.031C26.5464 47.7059 26.0752 55.4612 25.1391 65.0341C25.0047 66.4085 24.8648 68.2462 24.8282 69.1178C24.7642 70.6425 24.7727 70.7185 25.0522 71.1262C25.5465 71.8473 26.0862 72.1344 26.8345 72.0743C27.218 72.0435 27.61 71.9249 27.8018 71.7816ZM55.6033 71.8505C56.16 71.511 56.4376 71.1614 56.595 70.6015C56.7178 70.1646 56.4623 66.8875 55.8568 61.1333C55.6582 59.2456 55.1506 52.2712 54.9874 49.187C54.904 47.6114 54.8329 44.3475 54.8294 41.9339L54.8231 37.5455L55.1727 36.7883C55.5308 36.0127 56.1346 35.3662 57.6317 34.1556C59.7105 32.4746 60.7191 30.3766 60.5732 28.0372C60.4576 26.1857 59.8195 24.8348 58.4841 23.6147C57.7107 22.9081 56.7489 22.4255 55.5939 22.1646C53.2037 21.6245 50.4992 22.9869 49.2591 25.3557C48.4076 26.9822 48.2665 28.6004 48.818 30.4143C49.299 31.9964 49.9563 32.8867 51.7752 34.4196C53.137 35.5671 53.4764 35.9318 53.849 36.648C54.2748 37.4664 54.3946 38.4582 54.3957 41.1732C54.398 46.68 53.9876 53.6723 53.0461 64.1808C52.7443 67.5492 52.5627 70.1566 52.612 70.4146C52.8755 71.7938 54.454 72.5515 55.6033 71.8505ZM46.5377 70.5746C47.7237 70.3713 50.7839 69.6009 51.0927 69.428C51.2471 69.3416 51.3668 68.4047 51.7343 64.4047C52.5921 55.0704 52.8651 51.0503 53.0657 44.7986C53.213 40.2075 53.1628 38.3862 52.8637 37.4663C52.6696 36.8694 52.1693 36.3397 50.592 35.0606C49.1183 33.8657 47.9178 32.1068 47.5037 30.5362C47.245 29.555 47.2113 27.5521 47.438 26.6353C48.6502 21.734 53.9707 19.357 58.1565 21.8466C59.1205 22.42 60.4254 23.7813 60.9371 24.7475C61.5225 25.853 61.8294 27.1123 61.8273 28.4005C61.8227 31.164 60.7565 33.1451 58.0474 35.4236C57.0232 36.285 56.5758 36.7506 56.3492 37.1912L56.0415 37.7893L56.0707 41.751C56.1005 45.7953 56.211 48.5879 56.5339 53.4535C56.868 58.4893 57.5248 65.9312 57.6673 66.2954C57.7452 66.4947 57.8678 66.4371 58.7351 65.7937C62.9257 62.6851 65.8616 59.1629 68.0558 54.6116C72.3171 45.7726 71.8426 35.5537 66.7838 27.2196C65.4967 25.0993 64.3396 23.6333 62.5133 21.8091C59.6358 18.935 56.9954 17.1267 53.3971 15.5657C51.1436 14.5881 49.2043 14.0153 46.7205 13.5936C45.1171 13.3213 42.6137 13.0677 42.4611 13.1621C42.4045 13.1971 42.4612 13.6235 42.587 14.1098C43.1347 16.2266 43.6502 19.4777 43.9256 22.5517C44.1684 25.262 44.2051 35.0411 43.9903 39.8006C43.5987 48.4774 43.6121 53.229 44.0489 60.4628C44.1911 62.8184 44.7322 69.4636 44.8454 70.2454C44.9336 70.854 44.9219 70.8517 46.5377 70.5746ZM37.7576 70.2454C37.8208 69.8574 38.3104 64.7622 38.5512 61.9866C39.2181 54.2985 39.2362 44.4166 38.5856 43.1529C38.2362 42.4743 37.8896 42.0907 37.2592 41.6854L36.6316 41.2819L36.5519 40.1451C36.4283 38.3814 36.4134 26.1333 36.5268 19.5355L36.6289 13.5937L36.2222 13.6676C35.9985 13.7083 35.1354 13.9297 34.3043 14.1597C30.8835 15.1065 27.8632 16.5831 24.8108 18.8012L23.5537 19.7147L23.8289 20.0078L24.1042 20.3009L23.9496 23.011C23.8646 24.5015 23.6974 26.9553 23.5779 28.4639C23.445 30.1431 23.4031 31.2893 23.4698 31.4199C23.6129 31.7002 24.2057 31.6972 24.4609 31.415C24.6681 31.186 24.7901 29.3144 25.0136 22.9392C25.1123 20.1237 25.1281 20.0589 25.714 20.0546C25.8544 20.0536 26.0671 20.1609 26.1867 20.2931C26.3825 20.5095 26.3966 20.7125 26.3284 22.3349C25.95 31.3393 25.9561 30.9888 26.1736 31.3208C26.4134 31.687 26.9079 31.738 27.2464 31.4315C27.4393 31.2569 27.4692 31.028 27.4692 29.7264C27.4692 28.3755 27.3296 24.5571 27.1703 21.5511C27.1223 20.6453 27.1471 20.3923 27.2987 20.2407C27.5088 20.0305 27.9248 19.9978 28.197 20.17C28.3812 20.2866 28.5196 22.4257 28.7525 28.7543C28.831 30.8858 28.8691 31.2054 29.0693 31.4056C29.5003 31.8368 30.2175 31.5404 30.0882 30.9845C30.0057 30.6304 29.5615 24.3966 29.461 22.1845C29.373 20.2457 29.4252 20.0527 30.0385 20.0527C30.5122 20.0527 30.593 20.2654 30.6872 21.7593C31.1239 28.687 31.3956 31.8512 31.6921 33.4618C31.9264 34.7343 31.8558 35.8091 31.4865 36.5929C31.307 36.974 30.7722 37.6073 29.9616 38.3988C29.2749 39.0692 28.6114 39.8098 28.4871 40.0444C28.2813 40.433 28.262 40.7869 28.2709 44.0062C28.2816 47.896 28.4269 51 28.8786 56.9887C29.2035 61.2976 29.7641 67.7417 29.8503 68.16C29.9362 68.5766 32.8931 69.6607 35.7545 70.3246C37.545 70.7401 37.6778 70.7348 37.7576 70.2454ZM23.9763 63.8456C24.6615 56.3844 25.0002 51.4746 25.1775 46.4309C25.3872 40.4669 25.2948 39.964 23.7589 38.7084C22.7198 37.8589 22.2833 37.3144 21.9061 36.3971C21.557 35.5481 21.5465 34.7912 21.8564 32.8245C22.1667 30.8551 22.9184 20.7222 22.7667 20.5538C22.6114 20.3814 20.5015 22.5278 19.1253 24.2583C13.4061 31.4495 11.4779 41.1331 14.0117 49.94C15.2818 54.3551 17.765 58.6987 20.8415 61.8868C21.8217 62.9026 23.7143 64.6684 23.8229 64.6684C23.8657 64.6684 23.9347 64.2981 23.9763 63.8456ZM42.4568 45.9871C42.4573 45.7692 42.4926 45.2206 42.5353 44.7681L42.613 43.9453H41.377H40.1409L40.1418 44.2805C40.1423 44.4649 40.1775 44.9839 40.2199 45.4339L40.2972 46.2521L41.2852 46.2929C41.8286 46.3153 42.3144 46.3448 42.3646 46.3585C42.4149 46.3721 42.4563 46.205 42.4568 45.9871ZM42.64 42.4824C42.6533 42.3819 42.7353 40.2151 42.8222 37.6674C43.287 24.0394 42.354 15.188 39.9666 10.5767C39.416 9.51317 38.4096 8.10641 38.1993 8.10641C38.0153 8.10641 37.9625 9.32172 37.8079 17.1271C37.6429 25.4571 37.6217 35.8054 37.7637 38.7035L37.8563 40.593L38.4624 41.0615C38.7958 41.3191 39.2368 41.8008 39.4425 42.1318L39.8164 42.7336L41.2162 42.6994C42.3509 42.6718 42.6204 42.6307 42.64 42.4824Z" fill="#232E3F"/>
</svg>
